<?xml version="1.0" encoding="UTF-8" standalone="no"?>
<!DOCTYPE svg PUBLIC "-//W3C//DTD SVG 1.1//EN" "http://www.w3.org/Graphics/SVG/1.1/DTD/svg11.dtd">
<svg width="100%" height="100%" viewBox="0 0 695 828" version="1.1" xmlns="http://www.w3.org/2000/svg" xmlns:xlink="http://www.w3.org/1999/xlink" xml:space="preserve" xmlns:serif="http://www.serif.com/" style="fill-rule:evenodd;clip-rule:evenodd;stroke-linecap:round;stroke-linejoin:round;stroke-miterlimit:1.5;">
    <path d="M16.667,146.588C16.667,146.588 88.638,674.361 90.638,674.361C112,748.587 231.628,812.884 348.375,810.682C465.144,810.682 585.165,756.887 608.084,680.761L678.084,146.588" style="fill:white;stroke:black;stroke-width:33.33px;"/>
    <ellipse cx="347.375" cy="146.588" rx="330.709" ry="129.921" style="fill:rgb(208,172,188);fill-opacity:0.95;stroke:black;stroke-width:33.33px;"/>
    <path d="M191.8,264.698C123.4,252.343 85.247,231.084 51.574,204.71C105.911,162.151 218.02,132.912 347.375,132.912C476.731,132.912 588.84,162.151 643.177,204.71C609.504,231.084 566.246,252.343 497.845,264.698C497.845,264.698 490.96,269.134 488.701,273.389C465.345,317.385 539.253,500.054 432.974,500.919C376.628,501.377 379.138,394.524 347.375,391.616C273.276,384.834 350.353,651.772 264.954,649.922C107.887,646.518 250.033,302.657 191.8,264.698Z" style="fill:rgb(237,0,99);stroke:black;stroke-width:33.33px;"/>
    <path d="M183.94,245.995C216.625,252.301 216.145,263.127 221.497,285.495L467.457,270.844C472.137,260.261 483.068,249.16 514.638,244.542L183.94,245.995Z" style="fill:rgb(237,0,99);"/>
    <path d="M439.607,329.557C434.539,332.818 419.614,313.53 427.226,279.874C434.305,248.573 452.192,238.844 455.883,241.49C459.228,243.887 448.374,260.264 442.649,282.102C435.619,308.917 447.05,324.767 439.607,329.557Z" style="fill:white;"/>
    <path d="M256.746,599.765C252.929,603.71 232.787,592.061 229.659,562.98C226.75,535.933 240.769,523.446 245.096,524.616C249.017,525.676 243.737,541.687 245.018,560.761C246.592,584.183 262.35,593.972 256.746,599.765Z" style="fill:white;"/>
    <path d="M439.786,420.619C444.344,419.407 460.177,434.331 455.732,454.557C451.598,473.368 435.363,476.505 431.625,474.174C428.236,472.062 437.214,463.455 440.848,450.467C445.31,434.519 433.093,422.399 439.786,420.619Z" style="fill:white;"/>
</svg>
